<?xml version="1.0" encoding="UTF-8" standalone="no" ?>
<!DOCTYPE svg PUBLIC "-//W3C//DTD SVG 1.1//EN" "http://www.w3.org/Graphics/SVG/1.1/DTD/svg11.dtd">
<svg xmlns="http://www.w3.org/2000/svg" xmlns:xlink="http://www.w3.org/1999/xlink" version="1.1" width="400" height="400" viewBox="0 0 400 400" xml:space="preserve">
<desc>Created with Fabric.js 3.6.2</desc>
<defs>
</defs>
<g transform="matrix(0.4 0 0 0.4 200 200)" id="rect2995"  >
<path style="stroke: none; stroke-width: 1; stroke-dasharray: none; stroke-linecap: butt; stroke-dashoffset: 0; stroke-linejoin: miter; stroke-miterlimit: 4; fill: #f9004d; fill-rule: nonzero; opacity: 1;"  transform=" translate(-250, -250)" d="M 50 0 C 22.3 0 -1.0018638e-16 22.3 0 50 L 0 450 C 0 477.7 22.3 500 50 500 L 225.1875 500 L 225.1875 276.03125 L 180.90625 276.03125 L 180.90625 196.84375 L 225.1875 196.84375 L 225.1875 145.625 C 225.1875 108.94857 242.62281 51.65625 319.1875 51.65625 L 388.15625 51.90625 L 388.15625 128.75 L 338.0625 128.75 C 329.90292 128.75 318.3125 132.83295 318.3125 150.3125 L 318.3125 196.84375 L 389.28125 196.84375 L 381.15625 276.03125 L 318.3125 276.03125 L 318.3125 500 L 450 500 C 477.7 500 500 477.7 500 450 L 500 50 C 500 22.3 477.7 -1.0018638e-16 450 0 L 50 0 z" stroke-linecap="round" />
</g>
</svg>