<?xml version="1.0" encoding="UTF-8" standalone="no" ?>
<!DOCTYPE svg PUBLIC "-//W3C//DTD SVG 1.1//EN" "http://www.w3.org/Graphics/SVG/1.1/DTD/svg11.dtd">
<svg xmlns="http://www.w3.org/2000/svg" xmlns:xlink="http://www.w3.org/1999/xlink" version="1.1" width="400" height="400" viewBox="0 0 400 400" xml:space="preserve">
<desc>Created with Fabric.js 3.6.2</desc>
<defs>
</defs>
<g transform="matrix(0.39 0 0 0.39 200 200)"  >
<path style="stroke: none; stroke-width: 1; stroke-dasharray: none; stroke-linecap: butt; stroke-dashoffset: 0; stroke-linejoin: round; stroke-miterlimit: 2; fill: #f9004d; fill-rule: nonzero; opacity: 1;"  transform=" translate(-255.13, -254.71)" d="M 473.305 -1.353 c 20.88 0 37.885 16.533 37.885 36.926 l 0 438.251 c 0 20.393 -17.005 36.954 -37.885 36.954 l -436.459 0 c -20.839 0 -37.773 -16.561 -37.773 -36.954 l 0 -438.251 c 0 -20.393 16.934 -36.926 37.773 -36.926 l 436.459 0 Z m -37.829 436.389 l 0 -134.034 c 0 -65.822 -14.212 -116.427 -91.12 -116.427 c -36.955 0 -61.739 20.263 -71.867 39.476 l -1.04 0 l 0 -33.411 l -72.811 0 l 0 244.396 l 75.866 0 l 0 -120.878 c 0 -31.883 6.031 -62.773 45.554 -62.773 c 38.981 0 39.468 36.461 39.468 64.802 l 0 118.849 l 75.95 0 Z m -284.489 -244.396 l -76.034 0 l 0 244.396 l 76.034 0 l 0 -244.396 Z m -37.997 -121.489 c -24.395 0 -44.066 19.735 -44.066 44.047 c 0 24.318 19.671 44.052 44.066 44.052 c 24.299 0 44.026 -19.734 44.026 -44.052 c 0 -24.312 -19.727 -44.047 -44.026 -44.047 Z" stroke-linecap="round" />
</g>
</svg>